<svg xmlns="http://www.w3.org/2000/svg" enable-background="new 0 0 247.146 221.666" viewBox="0 0 247.146 221.666" id="hitting-ball"><path d="M66.766 187.333l3.046-1.239c2.802-1.14 6.027.22 7.167 3.022 1.024 2.517.027 5.37-2.217 6.752l.088.094c.501.535.807 1.178.947 1.847 3.23-1.907 4.674-5.946 3.219-9.523-.414-1.018-1.025-1.896-1.768-2.616.973-2.402 1.213-5.112.533-7.779l-6.392-25.047-26.075-10.061c-.815-.275-1.623-.587-2.403-.926l-.141-.055 7.115 27.879c.397.199.771.457 1.092.799L66.766 187.333zM66.386 53.166c-.144.015-.259.029-.309.035-.614.085-1.198.243-1.753.454-5.517 1.589-11.088 5.52-15.195 12.586C38.537 84.71 34.553 97.309 32.777 119.603c-.026 7.657 2.25 12.559 5.602 15.78 1.285 1.454 2.92 2.635 4.855 3.382l.819.316c.747.328 1.509.621 2.28.88l44.507 17.173c.106-.028.206-.069.316-.088l21.018-3.656-.865-4.975c-.518-2.98 1.496-5.843 4.476-6.361s5.843 1.496 6.361 4.476l.865 4.975 2.167-.377-.865-4.975c-.659-3.786-3.995-6.438-7.723-6.37-.391.007-.785.035-1.183.104-.732.127-1.418.36-2.054.671-1.305-1.478-2.944-2.668-4.849-3.403l-40.251-15.531c1.443-8.415 4.268-16.929 7.288-24.78L59.392 77.686c-1.757-2.083-2.597-4.726-2.365-7.439.231-2.715 1.506-5.177 3.589-6.933 1.837-1.549 4.17-2.402 6.57-2.402 3.017 0 5.86 1.321 7.803 3.626l9.217 10.933c.286-.981.53-1.973.694-2.97.912.354 1.856.744 2.832 1.173 4.643 2.038 9.994 4.953 15.935 9.135l-.424 1.097 4.04 1.563c1.087.828 2.191 1.697 3.313 2.61l19.519-4.101c-18.581-17.641-34.732-25.314-46.175-28.58-3.164-.903-5.971-1.477-8.365-1.826C72.811 52.753 69.642 52.562 66.386 53.166z"></path><polygon points="95.57 178.337 97.343 190.817 118.057 187.214 115.898 174.801"></polygon><polygon points="93.601 164.469 94.482 170.677 114.573 167.182 113.499 161.008"></polygon><polygon points="104.978 32.876 97.92 32.876 105.782 42.722 107.201 41.709"></polygon><path d="M109.116 41.126h15.22v2h-15.679l-1.498 1.069 8.372 7.948-1.377 1.451-9.251-8.783c-.018-.017-.024-.042-.04-.06-.016-.017-.038-.023-.052-.042l-9.487-11.88H82.299c-.651 11.048 6.931 21.159 18.092 23.368 5.1 1.009 10.135.204 14.447-1.961l4.564 4.291 7.71-3.993 1.564-13.408h-2.539c.278-.854.515-1.73.693-2.633.378-1.908.502-3.807.396-5.664h-20.197L109.116 41.126zM126.429 43.126l-1.181 10.121-5.509 2.853-3.074-2.889c3.787-2.364 6.866-5.842 8.713-10.084H126.429zM140.093 27.317c0-1.829-5.093-3.313-11.375-3.313-.144 0-.283.005-.425.006C126.485 10.294 118.833 0 104.843 0 88.676 0 80.965 13.741 80.965 30.63h47.752C135 30.63 140.093 29.147 140.093 27.317z"></path><rect width="2.2" height="6.267" x="124.856" y="158.888" transform="rotate(-9.87 125.936 162.002)"></rect><rect width="2.2" height="12.6" x="127.799" y="172.634" transform="rotate(-9.87 128.882 178.917)"></rect><path d="M132.642 206.872c.518 2.98-10.319 4.865-10.837 1.885l-2.422-13.924-20.952 3.645 1.197 8.429c.886 6.239 6.235 10.744 12.36 10.744.585 0 1.178-.042 1.773-.126 3.677-.522 6.741-2.603 8.646-5.471.902.304 1.994.445 3.246.408.729-.022 1.508-.1 2.337-.244 4.68-.814 7.293-3.007 6.82-5.722l-2.422-13.925-2.167.377L132.642 206.872zM91.533 159.212c-.903.157-1.513 1.025-1.356 1.928.157.903 1.025 1.513 1.928 1.356l34.4-5.984c.903-.157 1.513-1.025 1.356-1.928-.157-.903-1.025-1.513-1.928-1.356L91.533 159.212zM93.932 173.005c-.903.157-1.513 1.025-1.356 1.928.157.903 1.025 1.513 1.928 1.356l34.4-5.984c.903-.157 1.513-1.025 1.356-1.928s-1.025-1.513-1.928-1.356L93.932 173.005zM97.417 193.038c-.903.157-1.513 1.025-1.356 1.928.157.903 1.025 1.513 1.928 1.356l34.4-5.984c.903-.157 1.513-1.025 1.356-1.928-.157-.903-1.025-1.513-1.928-1.356L97.417 193.038zM237.851 141.26c0 0 2.757-.52 5.425-7.419 2.669-6.899.979-9.139.979-9.139L159.17 91.791l-6.405 16.557L237.851 141.26zM141.854 98.84l6.386 2.47 2.393 3.61 4.653-12.029-4.199 1.06-8.362-3.235c.102.32.192.645.262.979C143.503 94.161 143.094 96.671 141.854 98.84zM84.417 79.135l-11.111-13.18c-2.848-3.379-7.896-3.808-11.272-.96-3.378 2.848-3.808 7.895-.96 11.272l13.274 15.746C75.673 89.407 79.02 83.599 84.417 79.135zM131.359 85.963l-34.988 7.351L85.836 80.818c-5.763 4.765-9.14 11.352-9.939 13.033l11.323 13.431c1.537 1.824 3.785 2.844 6.116 2.844.546 0 1.098-.056 1.645-.171l39.667-8.334c4.324-.908 7.093-5.15 6.185-9.474C139.924 87.824 135.677 85.058 131.359 85.963zM30.316 214.04l-13.091 5.327c-2.802 1.14-6.948-9.049-4.146-10.189l13.091-5.327-6.534-16.06L7.42 193.229c-6.307 2.808-9.144 10.196-6.336 16.503 1.931 4.337 6.029 7.031 10.451 7.379 1.769 3.597 4.203 5.236 6.519 4.293l13.092-5.327L30.316 214.04z"></path><rect width="12.6" height="2.2" x="37.429" y="208.67" transform="rotate(-22.141 43.721 209.748)"></rect><polygon points="56.312 203.462 57.141 205.5 68.761 200.772 67.15 199.053"></polygon><polygon points="52.167 193.273 59.094 190.455 45.72 176.18 45.29 176.372"></polygon><polygon points="33.333 200.936 45.004 196.188 38.221 179.518 26.704 184.645"></polygon><path d="M70.813 199.745c.627.669 1.687.703 2.356.077.669-.627.703-1.687.077-2.356l-23.873-25.48c-.627-.669-1.687-.703-2.356-.077-.669.627-.703 1.687-.077 2.356L70.813 199.745zM52.161 207.94c.345.849 1.323 1.261 2.172.916.849-.345 1.261-1.323.916-2.172l-13.159-32.342c-.345-.849-1.323-1.261-2.172-.916-.849.345-1.261 1.323-.916 2.172L52.161 207.94zM33.327 215.603c.345.849 1.323 1.261 2.172.916.849-.345 1.261-1.323.916-2.172l-13.159-32.342c-.345-.849-1.323-1.261-2.172-.916s-1.261 1.323-.916 2.172L33.327 215.603z"></path><circle cx="238.021" cy="96.982" r="9.125"></circle></svg>